<?xml version="1.0" encoding="UTF-8"?><!DOCTYPE svg PUBLIC "-//W3C//DTD SVG 1.1//EN" "http://www.w3.org/Graphics/SVG/1.1/DTD/svg11.dtd"><svg xmlns="http://www.w3.org/2000/svg">

<symbol id="eacs-logo-carousel" viewBox="-290 382 30 30">
  <g>
    <polygon points="-265.1,394.1 -265.9,394.9 -263.7,397 -265.9,399.1 -265.1,399.9 -262.3,397  "/>
    <polygon points="-284.9,394.1 -287.7,397 -284.9,399.9 -284.1,399.1 -286.3,397 -284.1,394.9  "/>
    <path d="M-275,390c-1.1,0-2,0.9-2,2s0.9,2,2,2s2-0.9,2-2S-273.9,390-275,390z M-275,393c-0.6,0-1-0.4-1-1s0.4-1,1-1s1,0.4,1,1S-274.4,393-275,393z"/>
    <path d="M-281,390c-1.1,0-2,0.9-2,2s0.9,2,2,2s2-0.9,2-2S-279.9,390-281,390z M-281,393c-0.6,0-1-0.4-1-1s0.4-1,1-1s1,0.4,1,1S-280.4,393-281,393z"/>
    <path d="M-269,390c-1.1,0-2,0.9-2,2s0.9,2,2,2s2-0.9,2-2S-267.9,390-269,390z M-269,393c-0.6,0-1-0.4-1-1s0.4-1,1-1s1,0.4,1,1S-268.4,393-269,393z"/>
    <path d="M-280.5,396c0.3,0,0.5-0.2,0.5-0.5s-0.2-0.5-0.5-0.5h-1c-0.3,0-0.5,0.2-0.5,0.5s0.2,0.5,0.5,0.5H-280.5z"/>
    <path d="M-274.5,396c0.3,0,0.5-0.2,0.5-0.5s-0.2-0.5-0.5-0.5h-1c-0.3,0-0.5,0.2-0.5,0.5s0.2,0.5,0.5,0.5H-274.5z"/>
    <path d="M-268.5,396c0.3,0,0.5-0.2,0.5-0.5s-0.2-0.5-0.5-0.5h-1c-0.3,0-0.5,0.2-0.5,0.5s0.2,0.5,0.5,0.5H-268.5z"/>
    <path d="M-279.5,398h-3c-0.3,0-0.5,0.2-0.5,0.5s0.2,0.5,0.5,0.5h3c0.3,0,0.5-0.2,0.5-0.5S-279.2,398-279.5,398z"/>
    <path d="M-273.5,398h-3c-0.3,0-0.5,0.2-0.5,0.5s0.2,0.5,0.5,0.5h3c0.3,0,0.5-0.2,0.5-0.5S-273.2,398-273.5,398z"/>
    <path d="M-267.5,398h-3c-0.3,0-0.5,0.2-0.5,0.5s0.2,0.5,0.5,0.5h3c0.3,0,0.5-0.2,0.5-0.5S-267.2,398-267.5,398z"/>
    <path d="M-279.5,400h-3c-0.3,0-0.5,0.2-0.5,0.5s0.2,0.5,0.5,0.5h3c0.3,0,0.5-0.2,0.5-0.5S-279.2,400-279.5,400z"/>
    <path d="M-273.5,400h-3c-0.3,0-0.5,0.2-0.5,0.5s0.2,0.5,0.5,0.5h3c0.3,0,0.5-0.2,0.5-0.5S-273.2,400-273.5,400z"/>
    <path d="M-267.5,400h-3c-0.3,0-0.5,0.2-0.5,0.5s0.2,0.5,0.5,0.5h3c0.3,0,0.5-0.2,0.5-0.5S-267.2,400-267.5,400z"/>
    <path d="M-279.5,402h-3c-0.3,0-0.5,0.2-0.5,0.5s0.2,0.5,0.5,0.5h3c0.3,0,0.5-0.2,0.5-0.5S-279.2,402-279.5,402z"/>
    <path d="M-273.5,402h-3c-0.3,0-0.5,0.2-0.5,0.5s0.2,0.5,0.5,0.5h3c0.3,0,0.5-0.2,0.5-0.5S-273.2,402-273.5,402z"/>
    <path d="M-267.5,402h-3c-0.3,0-0.5,0.2-0.5,0.5s0.2,0.5,0.5,0.5h3c0.3,0,0.5-0.2,0.5-0.5S-267.2,402-267.5,402z"/>
    <path d="M-273.5,404h-3c-0.3,0-0.5,0.2-0.5,0.5s0.2,0.5,0.5,0.5h3c0.3,0,0.5-0.2,0.5-0.5S-273.2,404-273.5,404z"/>
  </g>
</symbol><symbol id="eacs-post-carousel" viewBox="-290 382 30 30">
  <g>
    <polygon points="-265.1,394.1 -265.9,394.9 -263.7,397 -265.9,399.1 -265.1,399.9 -262.3,397  "/>
    <polygon points="-284.9,394.1 -287.7,397 -284.9,399.9 -284.1,399.1 -286.3,397 -284.1,394.9  "/>
    <path d="M-275,390c-1.1,0-2,0.9-2,2s0.9,2,2,2s2-0.9,2-2S-273.9,390-275,390z M-275,393c-0.6,0-1-0.4-1-1s0.4-1,1-1s1,0.4,1,1S-274.4,393-275,393z"/>
    <path d="M-281,390c-1.1,0-2,0.9-2,2s0.9,2,2,2s2-0.9,2-2S-279.9,390-281,390z M-281,393c-0.6,0-1-0.4-1-1s0.4-1,1-1s1,0.4,1,1S-280.4,393-281,393z"/>
    <path d="M-269,390c-1.1,0-2,0.9-2,2s0.9,2,2,2s2-0.9,2-2S-267.9,390-269,390z M-269,393c-0.6,0-1-0.4-1-1s0.4-1,1-1s1,0.4,1,1S-268.4,393-269,393z"/>
    <path d="M-280.5,396c0.3,0,0.5-0.2,0.5-0.5s-0.2-0.5-0.5-0.5h-1c-0.3,0-0.5,0.2-0.5,0.5s0.2,0.5,0.5,0.5H-280.5z"/>
    <path d="M-274.5,396c0.3,0,0.5-0.2,0.5-0.5s-0.2-0.5-0.5-0.5h-1c-0.3,0-0.5,0.2-0.5,0.5s0.2,0.5,0.5,0.5H-274.5z"/>
    <path d="M-268.5,396c0.3,0,0.5-0.2,0.5-0.5s-0.2-0.5-0.5-0.5h-1c-0.3,0-0.5,0.2-0.5,0.5s0.2,0.5,0.5,0.5H-268.5z"/>
    <path d="M-279.5,398h-3c-0.3,0-0.5,0.2-0.5,0.5s0.2,0.5,0.5,0.5h3c0.3,0,0.5-0.2,0.5-0.5S-279.2,398-279.5,398z"/>
    <path d="M-273.5,398h-3c-0.3,0-0.5,0.2-0.5,0.5s0.2,0.5,0.5,0.5h3c0.3,0,0.5-0.2,0.5-0.5S-273.2,398-273.5,398z"/>
    <path d="M-267.5,398h-3c-0.3,0-0.5,0.2-0.5,0.5s0.2,0.5,0.5,0.5h3c0.3,0,0.5-0.2,0.5-0.5S-267.2,398-267.5,398z"/>
    <path d="M-279.5,400h-3c-0.3,0-0.5,0.2-0.5,0.5s0.2,0.5,0.5,0.5h3c0.3,0,0.5-0.2,0.5-0.5S-279.2,400-279.5,400z"/>
    <path d="M-273.5,400h-3c-0.3,0-0.5,0.2-0.5,0.5s0.2,0.5,0.5,0.5h3c0.3,0,0.5-0.2,0.5-0.5S-273.2,400-273.5,400z"/>
    <path d="M-267.5,400h-3c-0.3,0-0.5,0.2-0.5,0.5s0.2,0.5,0.5,0.5h3c0.3,0,0.5-0.2,0.5-0.5S-267.2,400-267.5,400z"/>
    <path d="M-279.5,402h-3c-0.3,0-0.5,0.2-0.5,0.5s0.2,0.5,0.5,0.5h3c0.3,0,0.5-0.2,0.5-0.5S-279.2,402-279.5,402z"/>
    <path d="M-273.5,402h-3c-0.3,0-0.5,0.2-0.5,0.5s0.2,0.5,0.5,0.5h3c0.3,0,0.5-0.2,0.5-0.5S-273.2,402-273.5,402z"/>
    <path d="M-267.5,402h-3c-0.3,0-0.5,0.2-0.5,0.5s0.2,0.5,0.5,0.5h3c0.3,0,0.5-0.2,0.5-0.5S-267.2,402-267.5,402z"/>
    <path d="M-273.5,404h-3c-0.3,0-0.5,0.2-0.5,0.5s0.2,0.5,0.5,0.5h3c0.3,0,0.5-0.2,0.5-0.5S-273.2,404-273.5,404z"/>
  </g>
</symbol><symbol id="eacs-product-carousel" viewBox="-290 382 30 30">
  <g>
    <polygon points="-265.1,394.1 -265.9,394.9 -263.7,397 -265.9,399.1 -265.1,399.9 -262.3,397  "/>
    <polygon points="-284.9,394.1 -287.7,397 -284.9,399.9 -284.1,399.1 -286.3,397 -284.1,394.9  "/>
    <path d="M-275,390c-1.1,0-2,0.9-2,2s0.9,2,2,2s2-0.9,2-2S-273.9,390-275,390z M-275,393c-0.6,0-1-0.4-1-1s0.4-1,1-1s1,0.4,1,1S-274.4,393-275,393z"/>
    <path d="M-281,390c-1.1,0-2,0.9-2,2s0.9,2,2,2s2-0.9,2-2S-279.9,390-281,390z M-281,393c-0.6,0-1-0.4-1-1s0.4-1,1-1s1,0.4,1,1S-280.4,393-281,393z"/>
    <path d="M-269,390c-1.1,0-2,0.9-2,2s0.9,2,2,2s2-0.9,2-2S-267.9,390-269,390z M-269,393c-0.6,0-1-0.4-1-1s0.4-1,1-1s1,0.4,1,1S-268.4,393-269,393z"/>
    <path d="M-280.5,396c0.3,0,0.5-0.2,0.5-0.5s-0.2-0.5-0.5-0.5h-1c-0.3,0-0.5,0.2-0.5,0.5s0.2,0.5,0.5,0.5H-280.5z"/>
    <path d="M-274.5,396c0.3,0,0.5-0.2,0.5-0.5s-0.2-0.5-0.5-0.5h-1c-0.3,0-0.5,0.2-0.5,0.5s0.2,0.5,0.5,0.5H-274.5z"/>
    <path d="M-268.5,396c0.3,0,0.5-0.2,0.5-0.5s-0.2-0.5-0.5-0.5h-1c-0.3,0-0.5,0.2-0.5,0.5s0.2,0.5,0.5,0.5H-268.5z"/>
    <path d="M-279.5,398h-3c-0.3,0-0.5,0.2-0.5,0.5s0.2,0.5,0.5,0.5h3c0.3,0,0.5-0.2,0.5-0.5S-279.2,398-279.5,398z"/>
    <path d="M-273.5,398h-3c-0.3,0-0.5,0.2-0.5,0.5s0.2,0.5,0.5,0.5h3c0.3,0,0.5-0.2,0.5-0.5S-273.2,398-273.5,398z"/>
    <path d="M-267.5,398h-3c-0.3,0-0.5,0.2-0.5,0.5s0.2,0.5,0.5,0.5h3c0.3,0,0.5-0.2,0.5-0.5S-267.2,398-267.5,398z"/>
    <path d="M-279.5,400h-3c-0.3,0-0.5,0.2-0.5,0.5s0.2,0.5,0.5,0.5h3c0.3,0,0.5-0.2,0.5-0.5S-279.2,400-279.5,400z"/>
    <path d="M-273.5,400h-3c-0.3,0-0.5,0.2-0.5,0.5s0.2,0.5,0.5,0.5h3c0.3,0,0.5-0.2,0.5-0.5S-273.2,400-273.5,400z"/>
    <path d="M-267.5,400h-3c-0.3,0-0.5,0.2-0.5,0.5s0.2,0.5,0.5,0.5h3c0.3,0,0.5-0.2,0.5-0.5S-267.2,400-267.5,400z"/>
    <path d="M-279.5,402h-3c-0.3,0-0.5,0.2-0.5,0.5s0.2,0.5,0.5,0.5h3c0.3,0,0.5-0.2,0.5-0.5S-279.2,402-279.5,402z"/>
    <path d="M-273.5,402h-3c-0.3,0-0.5,0.2-0.5,0.5s0.2,0.5,0.5,0.5h3c0.3,0,0.5-0.2,0.5-0.5S-273.2,402-273.5,402z"/>
    <path d="M-267.5,402h-3c-0.3,0-0.5,0.2-0.5,0.5s0.2,0.5,0.5,0.5h3c0.3,0,0.5-0.2,0.5-0.5S-267.2,402-267.5,402z"/>
    <path d="M-273.5,404h-3c-0.3,0-0.5,0.2-0.5,0.5s0.2,0.5,0.5,0.5h3c0.3,0,0.5-0.2,0.5-0.5S-273.2,404-273.5,404z"/>
  </g>
</symbol><symbol id="eacs-testimonial-slider" viewBox="-290 382 30 30">
  <g>
    <polygon points="-265.1,394.1 -265.9,394.9 -263.7,397 -265.9,399.1 -265.1,399.9 -262.3,397  "/>
    <polygon points="-284.9,394.1 -287.7,397 -284.9,399.9 -284.1,399.1 -286.3,397 -284.1,394.9  "/>
    <path d="M-275,390c-1.1,0-2,0.9-2,2s0.9,2,2,2s2-0.9,2-2S-273.9,390-275,390z M-275,393c-0.6,0-1-0.4-1-1s0.4-1,1-1s1,0.4,1,1S-274.4,393-275,393z"/>
    <path d="M-281,390c-1.1,0-2,0.9-2,2s0.9,2,2,2s2-0.9,2-2S-279.9,390-281,390z M-281,393c-0.6,0-1-0.4-1-1s0.4-1,1-1s1,0.4,1,1S-280.4,393-281,393z"/>
    <path d="M-269,390c-1.1,0-2,0.9-2,2s0.9,2,2,2s2-0.9,2-2S-267.9,390-269,390z M-269,393c-0.6,0-1-0.4-1-1s0.4-1,1-1s1,0.4,1,1S-268.4,393-269,393z"/>
    <path d="M-280.5,396c0.3,0,0.5-0.2,0.5-0.5s-0.2-0.5-0.5-0.5h-1c-0.3,0-0.5,0.2-0.5,0.5s0.2,0.5,0.5,0.5H-280.5z"/>
    <path d="M-274.5,396c0.3,0,0.5-0.2,0.5-0.5s-0.2-0.5-0.5-0.5h-1c-0.3,0-0.5,0.2-0.5,0.5s0.2,0.5,0.5,0.5H-274.5z"/>
    <path d="M-268.5,396c0.3,0,0.5-0.2,0.5-0.5s-0.2-0.5-0.5-0.5h-1c-0.3,0-0.5,0.2-0.5,0.5s0.2,0.5,0.5,0.5H-268.5z"/>
    <path d="M-279.5,398h-3c-0.3,0-0.5,0.2-0.5,0.5s0.2,0.5,0.5,0.5h3c0.3,0,0.5-0.2,0.5-0.5S-279.2,398-279.5,398z"/>
    <path d="M-273.5,398h-3c-0.3,0-0.5,0.2-0.5,0.5s0.2,0.5,0.5,0.5h3c0.3,0,0.5-0.2,0.5-0.5S-273.2,398-273.5,398z"/>
    <path d="M-267.5,398h-3c-0.3,0-0.5,0.2-0.5,0.5s0.2,0.5,0.5,0.5h3c0.3,0,0.5-0.2,0.5-0.5S-267.2,398-267.5,398z"/>
    <path d="M-279.5,400h-3c-0.3,0-0.5,0.2-0.5,0.5s0.2,0.5,0.5,0.5h3c0.3,0,0.5-0.2,0.5-0.5S-279.2,400-279.5,400z"/>
    <path d="M-273.5,400h-3c-0.3,0-0.5,0.2-0.5,0.5s0.2,0.5,0.5,0.5h3c0.3,0,0.5-0.2,0.5-0.5S-273.2,400-273.5,400z"/>
    <path d="M-267.5,400h-3c-0.3,0-0.5,0.2-0.5,0.5s0.2,0.5,0.5,0.5h3c0.3,0,0.5-0.2,0.5-0.5S-267.2,400-267.5,400z"/>
    <path d="M-279.5,402h-3c-0.3,0-0.5,0.2-0.5,0.5s0.2,0.5,0.5,0.5h3c0.3,0,0.5-0.2,0.5-0.5S-279.2,402-279.5,402z"/>
    <path d="M-273.5,402h-3c-0.3,0-0.5,0.2-0.5,0.5s0.2,0.5,0.5,0.5h3c0.3,0,0.5-0.2,0.5-0.5S-273.2,402-273.5,402z"/>
    <path d="M-267.5,402h-3c-0.3,0-0.5,0.2-0.5,0.5s0.2,0.5,0.5,0.5h3c0.3,0,0.5-0.2,0.5-0.5S-267.2,402-267.5,402z"/>
    <path d="M-273.5,404h-3c-0.3,0-0.5,0.2-0.5,0.5s0.2,0.5,0.5,0.5h3c0.3,0,0.5-0.2,0.5-0.5S-273.2,404-273.5,404z"/>
  </g>
</symbol><symbol id="eacs-team-members" viewBox="-290 382 30 30">
  <g>
    <polygon points="-265.1,394.1 -265.9,394.9 -263.7,397 -265.9,399.1 -265.1,399.9 -262.3,397  "/>
    <polygon points="-284.9,394.1 -287.7,397 -284.9,399.9 -284.1,399.1 -286.3,397 -284.1,394.9  "/>
    <path d="M-275,390c-1.1,0-2,0.9-2,2s0.9,2,2,2s2-0.9,2-2S-273.9,390-275,390z M-275,393c-0.6,0-1-0.4-1-1s0.4-1,1-1s1,0.4,1,1S-274.4,393-275,393z"/>
    <path d="M-281,390c-1.1,0-2,0.9-2,2s0.9,2,2,2s2-0.9,2-2S-279.9,390-281,390z M-281,393c-0.6,0-1-0.4-1-1s0.4-1,1-1s1,0.4,1,1S-280.4,393-281,393z"/>
    <path d="M-269,390c-1.1,0-2,0.9-2,2s0.9,2,2,2s2-0.9,2-2S-267.9,390-269,390z M-269,393c-0.6,0-1-0.4-1-1s0.4-1,1-1s1,0.4,1,1S-268.4,393-269,393z"/>
    <path d="M-280.5,396c0.3,0,0.5-0.2,0.5-0.5s-0.2-0.5-0.5-0.5h-1c-0.3,0-0.5,0.2-0.5,0.5s0.2,0.5,0.5,0.5H-280.5z"/>
    <path d="M-274.5,396c0.3,0,0.5-0.2,0.5-0.5s-0.2-0.5-0.5-0.5h-1c-0.3,0-0.5,0.2-0.5,0.5s0.2,0.5,0.5,0.5H-274.5z"/>
    <path d="M-268.5,396c0.3,0,0.5-0.2,0.5-0.5s-0.2-0.5-0.5-0.5h-1c-0.3,0-0.5,0.2-0.5,0.5s0.2,0.5,0.5,0.5H-268.5z"/>
    <path d="M-279.5,398h-3c-0.3,0-0.5,0.2-0.5,0.5s0.2,0.5,0.5,0.5h3c0.3,0,0.5-0.2,0.5-0.5S-279.2,398-279.5,398z"/>
    <path d="M-273.5,398h-3c-0.3,0-0.5,0.2-0.5,0.5s0.2,0.5,0.5,0.5h3c0.3,0,0.5-0.2,0.5-0.5S-273.2,398-273.5,398z"/>
    <path d="M-267.5,398h-3c-0.3,0-0.5,0.2-0.5,0.5s0.2,0.5,0.5,0.5h3c0.3,0,0.5-0.2,0.5-0.5S-267.2,398-267.5,398z"/>
    <path d="M-279.5,400h-3c-0.3,0-0.5,0.2-0.5,0.5s0.2,0.5,0.5,0.5h3c0.3,0,0.5-0.2,0.5-0.5S-279.2,400-279.5,400z"/>
    <path d="M-273.5,400h-3c-0.3,0-0.5,0.2-0.5,0.5s0.2,0.5,0.5,0.5h3c0.3,0,0.5-0.2,0.5-0.5S-273.2,400-273.5,400z"/>
    <path d="M-267.5,400h-3c-0.3,0-0.5,0.2-0.5,0.5s0.2,0.5,0.5,0.5h3c0.3,0,0.5-0.2,0.5-0.5S-267.2,400-267.5,400z"/>
    <path d="M-279.5,402h-3c-0.3,0-0.5,0.2-0.5,0.5s0.2,0.5,0.5,0.5h3c0.3,0,0.5-0.2,0.5-0.5S-279.2,402-279.5,402z"/>
    <path d="M-273.5,402h-3c-0.3,0-0.5,0.2-0.5,0.5s0.2,0.5,0.5,0.5h3c0.3,0,0.5-0.2,0.5-0.5S-273.2,402-273.5,402z"/>
    <path d="M-267.5,402h-3c-0.3,0-0.5,0.2-0.5,0.5s0.2,0.5,0.5,0.5h3c0.3,0,0.5-0.2,0.5-0.5S-267.2,402-267.5,402z"/>
    <path d="M-273.5,404h-3c-0.3,0-0.5,0.2-0.5,0.5s0.2,0.5,0.5,0.5h3c0.3,0,0.5-0.2,0.5-0.5S-273.2,404-273.5,404z"/>
  </g>
</symbol><symbol id="eacs-interactive-promo" viewBox="-290 382 30 30">
  <g>
    <path d="M-267.5,385h-15c-0.8,0-1.5,0.7-1.5,1.5v5.3v1.2v14.5c0,0.8,0.7,1.5,1.5,1.5h15c0.8,0,1.5-0.7,1.5-1.5V393v-5v-1.5C-266,385.7-266.7,385-267.5,385z M-267,386.5v2.2c-0.1,0.1-0.2,0.1-0.3,0.1c-0.1,0-0.1,0.1-0.2,0.1s-0.2,0-0.2,0c-0.7,0.1-1.3-0.1-1.7-0.5s-0.6-1.1-0.6-1.7c0-0.1,0-0.2,0-0.2c0-0.1,0-0.2,0.1-0.2c0-0.1,0.1-0.2,0.1-0.3h2.2C-267.2,386-267,386.2-267,386.5z M-283,386.5c0-0.3,0.2-0.5,0.5-0.5h11.7c-0.1,0.3-0.2,0.7-0.2,1c0,1.7,1.3,3,3,3c0.3,0,0.7-0.1,1-0.2v2.2h-2.3l-2.6-2.6c-0.6-0.6-1.5-0.6-2.1,0l-1.2,1.2l-2.7-2.7c-0.6-0.6-1.5-0.6-2.1,0l-3,2.9V386.5zM-279.4,388.6c0.2-0.2,0.5-0.2,0.7,0l3.4,3.4l1.9-1.9c0.2-0.2,0.5-0.2,0.7,0l1.9,1.9h-12L-279.4,388.6z M-267,407.5c0,0.3-0.2,0.5-0.5,0.5h-15c-0.3,0-0.5-0.2-0.5-0.5V393h13.3h1.4h1.3V407.5z"/>
    <path d="M-269.5,394h-8c-0.3,0-0.5,0.2-0.5,0.5s0.2,0.5,0.5,0.5h8c0.3,0,0.5-0.2,0.5-0.5S-269.2,394-269.5,394z"/>
    <path d="M-269.5,396h-11c-0.3,0-0.5,0.2-0.5,0.5s0.2,0.5,0.5,0.5h11c0.3,0,0.5-0.2,0.5-0.5S-269.2,396-269.5,396z"/>
    <path d="M-269.5,398h-11c-0.3,0-0.5,0.2-0.5,0.5s0.2,0.5,0.5,0.5h11c0.3,0,0.5-0.2,0.5-0.5S-269.2,398-269.5,398z"/>
    <path d="M-271.5,401c0.3,0,0.5-0.2,0.5-0.5s-0.2-0.5-0.5-0.5h-9c-0.3,0-0.5,0.2-0.5,0.5s0.2,0.5,0.5,0.5H-271.5z"/>
    <path d="M-270.5,403h-9c-0.8,0-1.5,0.7-1.5,1.5v1c0,0.8,0.7,1.5,1.5,1.5h9c0.8,0,1.5-0.7,1.5-1.5v-1C-269,403.7-269.7,403-270.5,403z M-270,405.5c0,0.3-0.2,0.5-0.5,0.5h-9c-0.3,0-0.5-0.2-0.5-0.5v-1c0-0.3,0.2-0.5,0.5-0.5h9c0.3,0,0.5,0.2,0.5,0.5V405.5z"/>
  </g>
</symbol><symbol id="eacs-instagram-feed" viewBox="-290 382 30 30">
  <path d="M-268.3,383.7h-13.3c-3.6,0-6.7,3-6.7,6.7v13.3c0,3.6,3,6.7,6.7,6.7h13.3c3.6,0,6.7-3,6.7-6.7v-13.3C-261.7,386.7-264.7,383.7-268.3,383.7z M-262.9,403.7c0,3-2.4,5.5-5.5,5.5h-13.3c-3,0-5.5-2.4-5.5-5.5v-13.3c0-3,2.4-5.5,5.5-5.5h13.3c3,0,5.5,2.4,5.5,5.5V403.7z M-275,406.7c-5.3,0-9.7-4.4-9.7-9.7s4.4-9.7,9.7-9.7s9.7,4.4,9.7,9.7S-269.7,406.7-275,406.7zM-275,388.5c-4.6,0-8.5,3.8-8.5,8.5s3.8,8.5,8.5,8.5s8.5-3.8,8.5-8.5S-270.4,388.5-275,388.5z"/>
</symbol>
<symbol id="eacs-product-grid" viewBox="-1388 3226 30 30">
  <g>
    <path d="M-1363.5,3228h-19c-1.9,0-3.5,1.6-3.5,3.5v19c0,1.9,1.6,3.5,3.5,3.5h19c1.9,0,3.5-1.6,3.5-3.5v-19C-1360,3229.6-1361.6,3228-1363.5,3228z M-1361,3250.5c0,1.4-1.1,2.5-2.5,2.5h-19c-1.4,0-2.5-1.1-2.5-2.5v-19c0-1.4,1.1-2.5,2.5-2.5h19c1.4,0,2.5,1.1,2.5,2.5V3250.5z"/>
    <path d="M-1374.6,3233.5h-4.8c-0.6,0-1.1,0.5-1.1,1.1v4.8c0,0.6,0.5,1.1,1.1,1.1h4.8c0.6,0,1.1-0.5,1.1-1.1v-4.8C-1373.5,3234-1374,3233.5-1374.6,3233.5z M-1374.5,3239.4c0,0.1,0,0.1-0.1,0.1h-4.8c-0.1,0-0.1,0-0.1-0.1v-4.8c0-0.1,0-0.1,0.1-0.1h4.8c0.1,0,0.1,0,0.1,0.1C-1374.5,3234.6-1374.5,3239.4-1374.5,3239.4z"/>
    <path d="M-1366.6,3233.5h-4.8c-0.6,0-1.1,0.5-1.1,1.1v4.8c0,0.6,0.5,1.1,1.1,1.1h4.8c0.6,0,1.1-0.5,1.1-1.1v-4.8C-1365.5,3234-1366,3233.5-1366.6,3233.5z M-1366.5,3239.4C-1366.5,3239.5-1366.5,3239.5-1366.5,3239.4l-4.9,0.1c-0.1,0-0.1,0-0.1-0.1v-4.8c0-0.1,0-0.1,0.1-0.1h4.8c0.1,0,0.1,0,0.1,0.1C-1366.5,3234.6-1366.5,3239.4-1366.5,3239.4z"/>
    <path d="M-1374.6,3241.5h-4.8c-0.6,0-1.1,0.5-1.1,1.1v4.8c0,0.6,0.5,1.1,1.1,1.1h4.8c0.6,0,1.1-0.5,1.1-1.1v-4.8C-1373.5,3242-1374,3241.5-1374.6,3241.5z M-1374.5,3247.4c0,0.1,0,0.1-0.1,0.1h-4.8c-0.1,0-0.1,0-0.1-0.1v-4.8c0-0.1,0-0.1,0.1-0.1h4.8c0.1,0,0.1,0,0.1,0.1C-1374.5,3242.6-1374.5,3247.4-1374.5,3247.4z"/>
    <path d="M-1366.6,3241.5h-4.8c-0.6,0-1.1,0.5-1.1,1.1v4.8c0,0.6,0.5,1.1,1.1,1.1h4.8c0.6,0,1.1-0.5,1.1-1.1v-4.8C-1365.5,3242-1366,3241.5-1366.6,3241.5z M-1366.5,3247.4C-1366.5,3247.5-1366.5,3247.5-1366.5,3247.4l-4.9,0.1c-0.1,0-0.1,0-0.1-0.1v-4.8c0-0.1,0-0.1,0.1-0.1h4.8c0.1,0,0.1,0,0.1,0.1C-1366.5,3242.6-1366.5,3247.4-1366.5,3247.4z"/>
  </g>
</symbol>
<symbol id="eacs-post-timeline" viewBox="-290 382 30 30">
  <g>
    <path d="M-284,385c-1.7,0-3,1.3-3,3c0,1.5,1.1,2.8,2.6,3c0.1,0,0.3,0,0.4,0c1.7,0,3-1.3,3-3S-282.3,385-284,385z M-285,389c0-0.6,0.4-1,1-1s1,0.4,1,1s-0.4,1-1,1S-285,389.6-285,389z M-282.1,388.5c-0.2-0.9-1-1.5-1.9-1.5s-1.7,0.6-1.9,1.5c-0.1-0.2-0.1-0.3-0.1-0.5c0-1.1,0.9-2,2-2s2,0.9,2,2C-282,388.2-282,388.3-282.1,388.5z"/>
    <path d="M-284,394c-1.7,0-3,1.3-3,3c0,1.5,1.1,2.8,2.6,3c0.1,0,0.3,0,0.4,0c1.7,0,3-1.3,3-3S-282.3,394-284,394z M-285,398c0-0.6,0.4-1,1-1s1,0.4,1,1s-0.4,1-1,1S-285,398.6-285,398z M-282.1,397.5c-0.2-0.9-1-1.5-1.9-1.5s-1.7,0.6-1.9,1.5c-0.1-0.2-0.1-0.3-0.1-0.5c0-1.1,0.9-2,2-2s2,0.9,2,2C-282,397.2-282,397.3-282.1,397.5z"/>
    <path d="M-284,403c-1.7,0-3,1.3-3,3c0,1.5,1.1,2.8,2.6,3c0.1,0,0.3,0,0.4,0c1.7,0,3-1.3,3-3S-282.3,403-284,403z M-285,407c0-0.6,0.4-1,1-1s1,0.4,1,1s-0.4,1-1,1S-285,407.6-285,407z M-282.1,406.5c-0.2-0.9-1-1.5-1.9-1.5s-1.7,0.6-1.9,1.5c-0.1-0.2-0.1-0.3-0.1-0.5c0-1.1,0.9-2,2-2s2,0.9,2,2C-282,406.2-282,406.3-282.1,406.5z"/>
    <path d="M-278.5,386h5c0.3,0,0.5-0.2,0.5-0.5s-0.2-0.5-0.5-0.5h-5c-0.3,0-0.5,0.2-0.5,0.5S-278.8,386-278.5,386z"/>
    <path d="M-277,388.5c0,0.3,0.2,0.5,0.5,0.5h13c0.3,0,0.5-0.2,0.5-0.5s-0.2-0.5-0.5-0.5h-13C-276.8,388-277,388.2-277,388.5z"/>
    <path d="M-278.5,391h12c0.3,0,0.5-0.2,0.5-0.5s-0.2-0.5-0.5-0.5h-12c-0.3,0-0.5,0.2-0.5,0.5S-278.8,391-278.5,391z"/>
    <path d="M-278.5,395h4c0.3,0,0.5-0.2,0.5-0.5s-0.2-0.5-0.5-0.5h-4c-0.3,0-0.5,0.2-0.5,0.5S-278.8,395-278.5,395z"/>
    <path d="M-263.5,397h-13c-0.3,0-0.5,0.2-0.5,0.5s0.2,0.5,0.5,0.5h13c0.3,0,0.5-0.2,0.5-0.5S-263.2,397-263.5,397z"/>
    <path d="M-278.5,400h14c0.3,0,0.5-0.2,0.5-0.5s-0.2-0.5-0.5-0.5h-14c-0.3,0-0.5,0.2-0.5,0.5S-278.8,400-278.5,400z"/>
    <path d="M-278.5,404h7c0.3,0,0.5-0.2,0.5-0.5s-0.2-0.5-0.5-0.5h-7c-0.3,0-0.5,0.2-0.5,0.5S-278.8,404-278.5,404z"/>
    <path d="M-263.5,406h-13c-0.3,0-0.5,0.2-0.5,0.5s0.2,0.5,0.5,0.5h13c0.3,0,0.5-0.2,0.5-0.5S-263.2,406-263.5,406z"/>
    <path d="M-271.5,408h-7c-0.3,0-0.5,0.2-0.5,0.5s0.2,0.5,0.5,0.5h7c0.3,0,0.5-0.2,0.5-0.5S-271.2,408-271.5,408z"/>
    <circle cx="-284" cy="392.5" r="0.5"/>
    <circle cx="-284" cy="401.5" r="0.5"/>
  </g>
</symbol>
<symbol id="default" viewBox="-290 382 30 30">
  <path d="M-268.3,383.7h-13.3c-3.6,0-6.7,3-6.7,6.7v13.3c0,3.6,3,6.7,6.7,6.7h13.3c3.6,0,6.7-3,6.7-6.7v-13.3C-261.7,386.7-264.7,383.7-268.3,383.7z M-262.9,403.7c0,3-2.4,5.5-5.5,5.5h-13.3c-3,0-5.5-2.4-5.5-5.5v-13.3c0-3,2.4-5.5,5.5-5.5h13.3c3,0,5.5,2.4,5.5,5.5V403.7z M-275,406.7c-5.3,0-9.7-4.4-9.7-9.7s4.4-9.7,9.7-9.7s9.7,4.4,9.7,9.7S-269.7,406.7-275,406.7zM-275,388.5c-4.6,0-8.5,3.8-8.5,8.5s3.8,8.5,8.5,8.5s8.5-3.8,8.5-8.5S-270.4,388.5-275,388.5z"/>
</symbol>

</svg>